{
	"asset":{
		"generator":"Khronos glTF Blender I/O v4.4.56",
		"version":"2.0"
	},
	"extensionsUsed":[
		"KHR_materials_clearcoat"
	],
	"scene":0,
	"scenes":[
		{
			"name":"Scene",
			"nodes":[
				4
			]
		}
	],
	"nodes":[
		{
			"mesh":0,
			"name":"leftEye",
			"rotation":[
				0,
				0,
				0.1961161196231842,
				0.9805806875228882
			],
			"scale":[
				0.30000001192092896,
				0.20000000298023224,
				0.20000000298023224
			],
			"translation":[
				0.3999999761581421,
				0.5,
				0.800000011920929
			]
		},
		{
			"mesh":1,
			"name":"leftLeg",
			"scale":[
				0.3999999761581421,
				0.2500000298023224,
				0.6000000834465027
			],
			"translation":[
				0.44999998807907104,
				-1,
				0
			]
		},
		{
			"mesh":2,
			"name":"rightEye",
			"rotation":[
				0,
				0,
				-0.1961161196231842,
				0.9805806875228882
			],
			"scale":[
				0.30000001192092896,
				0.20000000298023224,
				0.20000000298023224
			],
			"translation":[
				-0.3999999761581421,
				0.5,
				0.800000011920929
			]
		},
		{
			"mesh":3,
			"name":"rightLeg",
			"scale":[
				0.3999999761581421,
				0.2500000298023224,
				0.6000000834465027
			],
			"translation":[
				-0.44999998807907104,
				-1,
				0
			]
		},
		{
			"children":[
				0,
				1,
				2,
				3
			],
			"mesh":4,
			"name":"body"
		}
	],
	"materials":[
		{
			"doubleSided":true,
			"extensions":{
				"KHR_materials_clearcoat":{
					"clearcoatRoughnessFactor":0
				}
			},
			"name":"\u30de\u30c6\u30ea\u30a2\u30eb.002",
			"pbrMetallicRoughness":{
				"baseColorTexture":{
					"index":0
				},
				"metallicFactor":0,
				"roughnessFactor":0.5
			}
		},
		{
			"doubleSided":true,
			"name":"\u30de\u30c6\u30ea\u30a2\u30eb.003",
			"pbrMetallicRoughness":{
				"baseColorTexture":{
					"index":1
				},
				"metallicFactor":0,
				"roughnessFactor":0.5
			}
		},
		{
			"doubleSided":true,
			"extensions":{
				"KHR_materials_clearcoat":{
					"clearcoatRoughnessFactor":0
				}
			},
			"name":"\u30de\u30c6\u30ea\u30a2\u30eb.001",
			"pbrMetallicRoughness":{
				"baseColorTexture":{
					"index":2
				},
				"metallicFactor":0,
				"roughnessFactor":0.5
			}
		},
		{
			"doubleSided":true,
			"name":"\u30de\u30c6\u30ea\u30a2\u30eb.004",
			"pbrMetallicRoughness":{
				"baseColorTexture":{
					"index":3
				},
				"metallicFactor":0,
				"roughnessFactor":0.5
			}
		},
		{
			"doubleSided":true,
			"extensions":{
				"KHR_materials_clearcoat":{
					"clearcoatRoughnessFactor":0
				}
			},
			"name":"\u30de\u30c6\u30ea\u30a2\u30eb",
			"pbrMetallicRoughness":{
				"baseColorTexture":{
					"index":4
				},
				"metallicFactor":0,
				"roughnessFactor":0.5
			}
		}
	],
	"meshes":[
		{
			"name":"\u7403.003",
			"primitives":[
				{
					"attributes":{
						"POSITION":0,
						"NORMAL":1,
						"TEXCOORD_0":2
					},
					"indices":3,
					"material":0
				}
			]
		},
		{
			"name":"\u7403",
			"primitives":[
				{
					"attributes":{
						"POSITION":4,
						"NORMAL":5,
						"TEXCOORD_0":6
					},
					"indices":7,
					"material":1
				}
			]
		},
		{
			"name":"\u7403.004",
			"primitives":[
				{
					"attributes":{
						"POSITION":8,
						"NORMAL":9,
						"TEXCOORD_0":10
					},
					"indices":3,
					"material":2
				}
			]
		},
		{
			"name":"\u7403.002",
			"primitives":[
				{
					"attributes":{
						"POSITION":11,
						"NORMAL":12,
						"TEXCOORD_0":13
					},
					"indices":7,
					"material":3
				}
			]
		},
		{
			"name":"\u7403.001",
			"primitives":[
				{
					"attributes":{
						"POSITION":14,
						"NORMAL":15,
						"TEXCOORD_0":16
					},
					"indices":17,
					"material":4
				}
			]
		}
	],
	"textures":[
		{
			"sampler":0,
			"source":0
		},
		{
			"sampler":0,
			"source":1
		},
		{
			"sampler":0,
			"source":0
		},
		{
			"sampler":0,
			"source":1
		},
		{
			"sampler":0,
			"source":2
		}
	],
	"images":[
		{
			"mimeType":"image/png",
			"name":"red",
			"uri":"red.png"
		},
		{
			"mimeType":"image/png",
			"name":"pink",
			"uri":"pink.png"
		},
		{
			"mimeType":"image/png",
			"name":"purple",
			"uri":"purple.png"
		}
	],
	"accessors":[
		{
			"bufferView":0,
			"componentType":5126,
			"count":2020,
			"max":[
				0.9999997019767761,
				1,
				0.9999993443489075
			],
			"min":[
				-0.9999990463256836,
				-1,
				-1
			],
			"type":"VEC3"
		},
		{
			"bufferView":1,
			"componentType":5126,
			"count":2020,
			"type":"VEC3"
		},
		{
			"bufferView":2,
			"componentType":5126,
			"count":2020,
			"type":"VEC2"
		},
		{
			"bufferView":3,
			"componentType":5123,
			"count":2880,
			"type":"SCALAR"
		},
		{
			"bufferView":4,
			"componentType":5126,
			"count":1984,
			"max":[
				0.9999997019767761,
				1,
				0.9999993443489075
			],
			"min":[
				-0.9999990463256836,
				-1,
				-1
			],
			"type":"VEC3"
		},
		{
			"bufferView":5,
			"componentType":5126,
			"count":1984,
			"type":"VEC3"
		},
		{
			"bufferView":6,
			"componentType":5126,
			"count":1984,
			"type":"VEC2"
		},
		{
			"bufferView":7,
			"componentType":5123,
			"count":2880,
			"type":"SCALAR"
		},
		{
			"bufferView":8,
			"componentType":5126,
			"count":2020,
			"max":[
				0.9999997019767761,
				1,
				0.9999993443489075
			],
			"min":[
				-0.9999990463256836,
				-1,
				-1
			],
			"type":"VEC3"
		},
		{
			"bufferView":9,
			"componentType":5126,
			"count":2020,
			"type":"VEC3"
		},
		{
			"bufferView":10,
			"componentType":5126,
			"count":2020,
			"type":"VEC2"
		},
		{
			"bufferView":11,
			"componentType":5126,
			"count":1984,
			"max":[
				0.9999997019767761,
				1,
				0.9999993443489075
			],
			"min":[
				-0.9999990463256836,
				-1,
				-1
			],
			"type":"VEC3"
		},
		{
			"bufferView":12,
			"componentType":5126,
			"count":1984,
			"type":"VEC3"
		},
		{
			"bufferView":13,
			"componentType":5126,
			"count":1984,
			"type":"VEC2"
		},
		{
			"bufferView":14,
			"componentType":5126,
			"count":2020,
			"max":[
				0.9999997019767761,
				1,
				0.9999993443489075
			],
			"min":[
				-0.9999990463256836,
				-1,
				-1
			],
			"type":"VEC3"
		},
		{
			"bufferView":15,
			"componentType":5126,
			"count":2020,
			"type":"VEC3"
		},
		{
			"bufferView":16,
			"componentType":5126,
			"count":2020,
			"type":"VEC2"
		},
		{
			"bufferView":17,
			"componentType":5123,
			"count":2880,
			"type":"SCALAR"
		}
	],
	"bufferViews":[
		{
			"buffer":0,
			"byteLength":24240,
			"byteOffset":0,
			"target":34962
		},
		{
			"buffer":0,
			"byteLength":24240,
			"byteOffset":24240,
			"target":34962
		},
		{
			"buffer":0,
			"byteLength":16160,
			"byteOffset":48480,
			"target":34962
		},
		{
			"buffer":0,
			"byteLength":5760,
			"byteOffset":64640,
			"target":34963
		},
		{
			"buffer":0,
			"byteLength":23808,
			"byteOffset":70400,
			"target":34962
		},
		{
			"buffer":0,
			"byteLength":23808,
			"byteOffset":94208,
			"target":34962
		},
		{
			"buffer":0,
			"byteLength":15872,
			"byteOffset":118016,
			"target":34962
		},
		{
			"buffer":0,
			"byteLength":5760,
			"byteOffset":133888,
			"target":34963
		},
		{
			"buffer":0,
			"byteLength":24240,
			"byteOffset":139648,
			"target":34962
		},
		{
			"buffer":0,
			"byteLength":24240,
			"byteOffset":163888,
			"target":34962
		},
		{
			"buffer":0,
			"byteLength":16160,
			"byteOffset":188128,
			"target":34962
		},
		{
			"buffer":0,
			"byteLength":23808,
			"byteOffset":204288,
			"target":34962
		},
		{
			"buffer":0,
			"byteLength":23808,
			"byteOffset":228096,
			"target":34962
		},
		{
			"buffer":0,
			"byteLength":15872,
			"byteOffset":251904,
			"target":34962
		},
		{
			"buffer":0,
			"byteLength":24240,
			"byteOffset":267776,
			"target":34962
		},
		{
			"buffer":0,
			"byteLength":24240,
			"byteOffset":292016,
			"target":34962
		},
		{
			"buffer":0,
			"byteLength":16160,
			"byteOffset":316256,
			"target":34962
		},
		{
			"buffer":0,
			"byteLength":5760,
			"byteOffset":332416,
			"target":34963
		}
	],
	"samplers":[
		{
			"magFilter":9729,
			"minFilter":9987
		}
	],
	"buffers":[
		{
			"byteLength":338176,
			"uri":"bounceEnemy.bin"
		}
	]
}
