{
	"asset":{
		"generator":"Khronos glTF Blender I/O v4.4.56",
		"version":"2.0"
	},
	"extensionsUsed":[
		"KHR_materials_clearcoat"
	],
	"scene":0,
	"scenes":[
		{
			"name":"Scene",
			"nodes":[
				0,
				7
			]
		}
	],
	"nodes":[
		{
			"name":"\u30a8\u30f3\u30d7\u30c6\u30a3",
			"rotation":[
				0.70710688829422,
				0,
				0,
				0.7071066498756409
			],
			"translation":[
				1.8108463287353516,
				1.8284183740615845,
				0
			]
		},
		{
			"mesh":0,
			"name":"leftEye",
			"rotation":[
				0,
				0,
				0.1961161196231842,
				0.9805806875228882
			],
			"scale":[
				0.30000001192092896,
				0.20000000298023224,
				0.20000000298023224
			],
			"translation":[
				0.3999999761581421,
				0.5,
				0.800000011920929
			]
		},
		{
			"mesh":1,
			"name":"\u5de6\u819c",
			"scale":[
				1,
				1,
				0
			]
		},
		{
			"children":[
				2
			],
			"mesh":2,
			"name":"leftWing"
		},
		{
			"mesh":3,
			"name":"rightEye",
			"rotation":[
				0,
				0,
				-0.1961161196231842,
				0.9805806875228882
			],
			"scale":[
				0.30000001192092896,
				0.20000000298023224,
				0.20000000298023224
			],
			"translation":[
				-0.3999999761581421,
				0.5,
				0.800000011920929
			]
		},
		{
			"mesh":4,
			"name":"\u53f3\u819c"
		},
		{
			"children":[
				5
			],
			"mesh":5,
			"name":"rightWing"
		},
		{
			"children":[
				1,
				3,
				4,
				6
			],
			"mesh":6,
			"name":"body"
		}
	],
	"materials":[
		{
			"doubleSided":true,
			"extensions":{
				"KHR_materials_clearcoat":{
					"clearcoatRoughnessFactor":0
				}
			},
			"name":"\u30de\u30c6\u30ea\u30a2\u30eb.002",
			"pbrMetallicRoughness":{
				"baseColorTexture":{
					"index":0
				},
				"metallicFactor":0,
				"roughnessFactor":0.5
			}
		},
		{
			"doubleSided":true,
			"name":"\u30de\u30c6\u30ea\u30a2\u30eb.005",
			"pbrMetallicRoughness":{
				"baseColorTexture":{
					"index":1
				},
				"metallicFactor":0,
				"roughnessFactor":0.5
			}
		},
		{
			"doubleSided":true,
			"name":"\u30de\u30c6\u30ea\u30a2\u30eb.003",
			"pbrMetallicRoughness":{
				"baseColorTexture":{
					"index":2
				},
				"metallicFactor":0,
				"roughnessFactor":0.5
			}
		},
		{
			"doubleSided":true,
			"extensions":{
				"KHR_materials_clearcoat":{
					"clearcoatRoughnessFactor":0
				}
			},
			"name":"\u30de\u30c6\u30ea\u30a2\u30eb.001",
			"pbrMetallicRoughness":{
				"baseColorTexture":{
					"index":3
				},
				"metallicFactor":0,
				"roughnessFactor":0.5
			}
		},
		{
			"doubleSided":true,
			"name":"\u30de\u30c6\u30ea\u30a2\u30eb.006",
			"pbrMetallicRoughness":{
				"baseColorTexture":{
					"index":4
				},
				"metallicFactor":0,
				"roughnessFactor":0.5
			}
		},
		{
			"doubleSided":true,
			"name":"\u30de\u30c6\u30ea\u30a2\u30eb.004",
			"pbrMetallicRoughness":{
				"baseColorTexture":{
					"index":5
				},
				"metallicFactor":0,
				"roughnessFactor":0.5
			}
		},
		{
			"doubleSided":true,
			"extensions":{
				"KHR_materials_clearcoat":{
					"clearcoatRoughnessFactor":0
				}
			},
			"name":"\u30de\u30c6\u30ea\u30a2\u30eb",
			"pbrMetallicRoughness":{
				"baseColorTexture":{
					"index":6
				},
				"metallicFactor":0,
				"roughnessFactor":0.5
			}
		}
	],
	"meshes":[
		{
			"name":"\u7403.003",
			"primitives":[
				{
					"attributes":{
						"POSITION":0,
						"NORMAL":1,
						"TEXCOORD_0":2
					},
					"indices":3,
					"material":0
				}
			]
		},
		{
			"name":"\u5e73\u9762",
			"primitives":[
				{
					"attributes":{
						"POSITION":4,
						"NORMAL":5,
						"TEXCOORD_0":6
					},
					"indices":7,
					"material":1
				}
			]
		},
		{
			"name":"NURBS\u30d1\u30b9",
			"primitives":[
				{
					"attributes":{
						"POSITION":8,
						"NORMAL":9,
						"TEXCOORD_0":10
					},
					"indices":11,
					"material":2
				}
			]
		},
		{
			"name":"\u7403.004",
			"primitives":[
				{
					"attributes":{
						"POSITION":12,
						"NORMAL":13,
						"TEXCOORD_0":14
					},
					"indices":3,
					"material":3
				}
			]
		},
		{
			"name":"\u5e73\u9762.003",
			"primitives":[
				{
					"attributes":{
						"POSITION":15,
						"NORMAL":16,
						"TEXCOORD_0":17
					},
					"indices":7,
					"material":4
				}
			]
		},
		{
			"name":"NURBS\u30d1\u30b9.001",
			"primitives":[
				{
					"attributes":{
						"POSITION":18,
						"NORMAL":19,
						"TEXCOORD_0":20
					},
					"indices":11,
					"material":5
				}
			]
		},
		{
			"name":"\u7403.001",
			"primitives":[
				{
					"attributes":{
						"POSITION":21,
						"NORMAL":22,
						"TEXCOORD_0":23
					},
					"indices":24,
					"material":6
				}
			]
		}
	],
	"textures":[
		{
			"sampler":0,
			"source":0
		},
		{
			"sampler":0,
			"source":1
		},
		{
			"sampler":0,
			"source":2
		},
		{
			"sampler":0,
			"source":0
		},
		{
			"sampler":0,
			"source":1
		},
		{
			"sampler":0,
			"source":2
		},
		{
			"sampler":0,
			"source":2
		}
	],
	"images":[
		{
			"mimeType":"image/png",
			"name":"red",
			"uri":"red.png"
		},
		{
			"mimeType":"image/png",
			"name":"pink",
			"uri":"pink.png"
		},
		{
			"mimeType":"image/png",
			"name":"purple",
			"uri":"purple.png"
		}
	],
	"accessors":[
		{
			"bufferView":0,
			"componentType":5126,
			"count":2020,
			"max":[
				0.9999997019767761,
				1,
				0.9999993443489075
			],
			"min":[
				-0.9999990463256836,
				-1,
				-1
			],
			"type":"VEC3"
		},
		{
			"bufferView":1,
			"componentType":5126,
			"count":2020,
			"type":"VEC3"
		},
		{
			"bufferView":2,
			"componentType":5126,
			"count":2020,
			"type":"VEC2"
		},
		{
			"bufferView":3,
			"componentType":5123,
			"count":2880,
			"type":"SCALAR"
		},
		{
			"bufferView":4,
			"componentType":5126,
			"count":96,
			"max":[
				2.627993583679199,
				1.3586786985397339,
				7.176075911274893e-08
			],
			"min":[
				0.8712210655212402,
				0.3986430764198303,
				-1.2865908161074913e-07
			],
			"type":"VEC3"
		},
		{
			"bufferView":5,
			"componentType":5126,
			"count":96,
			"type":"VEC3"
		},
		{
			"bufferView":6,
			"componentType":5126,
			"count":96,
			"type":"VEC2"
		},
		{
			"bufferView":7,
			"componentType":5123,
			"count":390,
			"type":"SCALAR"
		},
		{
			"bufferView":8,
			"componentType":5126,
			"count":2493,
			"max":[
				2.6408023834228516,
				1.3690322637557983,
				0.010000056587159634
			],
			"min":[
				0.863269567489624,
				0.462490439414978,
				-0.01000006403774023
			],
			"type":"VEC3"
		},
		{
			"bufferView":9,
			"componentType":5126,
			"count":2493,
			"type":"VEC3"
		},
		{
			"bufferView":10,
			"componentType":5126,
			"count":2493,
			"type":"VEC2"
		},
		{
			"bufferView":11,
			"componentType":5123,
			"count":13674,
			"type":"SCALAR"
		},
		{
			"bufferView":12,
			"componentType":5126,
			"count":2020,
			"max":[
				0.9999997019767761,
				1,
				0.9999993443489075
			],
			"min":[
				-0.9999990463256836,
				-1,
				-1
			],
			"type":"VEC3"
		},
		{
			"bufferView":13,
			"componentType":5126,
			"count":2020,
			"type":"VEC3"
		},
		{
			"bufferView":14,
			"componentType":5126,
			"count":2020,
			"type":"VEC2"
		},
		{
			"bufferView":15,
			"componentType":5126,
			"count":96,
			"max":[
				-0.8712210655212402,
				1.3586786985397339,
				8.90520794882832e-08
			],
			"min":[
				-2.627993583679199,
				0.3986430764198303,
				-3.8246761846494337e-07
			],
			"type":"VEC3"
		},
		{
			"bufferView":16,
			"componentType":5126,
			"count":96,
			"type":"VEC3"
		},
		{
			"bufferView":17,
			"componentType":5126,
			"count":96,
			"type":"VEC2"
		},
		{
			"bufferView":18,
			"componentType":5126,
			"count":2493,
			"max":[
				-0.863269567489624,
				1.3690322637557983,
				0.010000059381127357
			],
			"min":[
				-2.6408023834228516,
				0.462490439414978,
				-0.010000139474868774
			],
			"type":"VEC3"
		},
		{
			"bufferView":19,
			"componentType":5126,
			"count":2493,
			"type":"VEC3"
		},
		{
			"bufferView":20,
			"componentType":5126,
			"count":2493,
			"type":"VEC2"
		},
		{
			"bufferView":21,
			"componentType":5126,
			"count":2020,
			"max":[
				0.9999997019767761,
				1,
				0.9999993443489075
			],
			"min":[
				-0.9999990463256836,
				-1,
				-1
			],
			"type":"VEC3"
		},
		{
			"bufferView":22,
			"componentType":5126,
			"count":2020,
			"type":"VEC3"
		},
		{
			"bufferView":23,
			"componentType":5126,
			"count":2020,
			"type":"VEC2"
		},
		{
			"bufferView":24,
			"componentType":5123,
			"count":2880,
			"type":"SCALAR"
		}
	],
	"bufferViews":[
		{
			"buffer":0,
			"byteLength":24240,
			"byteOffset":0,
			"target":34962
		},
		{
			"buffer":0,
			"byteLength":24240,
			"byteOffset":24240,
			"target":34962
		},
		{
			"buffer":0,
			"byteLength":16160,
			"byteOffset":48480,
			"target":34962
		},
		{
			"buffer":0,
			"byteLength":5760,
			"byteOffset":64640,
			"target":34963
		},
		{
			"buffer":0,
			"byteLength":1152,
			"byteOffset":70400,
			"target":34962
		},
		{
			"buffer":0,
			"byteLength":1152,
			"byteOffset":71552,
			"target":34962
		},
		{
			"buffer":0,
			"byteLength":768,
			"byteOffset":72704,
			"target":34962
		},
		{
			"buffer":0,
			"byteLength":780,
			"byteOffset":73472,
			"target":34963
		},
		{
			"buffer":0,
			"byteLength":29916,
			"byteOffset":74252,
			"target":34962
		},
		{
			"buffer":0,
			"byteLength":29916,
			"byteOffset":104168,
			"target":34962
		},
		{
			"buffer":0,
			"byteLength":19944,
			"byteOffset":134084,
			"target":34962
		},
		{
			"buffer":0,
			"byteLength":27348,
			"byteOffset":154028,
			"target":34963
		},
		{
			"buffer":0,
			"byteLength":24240,
			"byteOffset":181376,
			"target":34962
		},
		{
			"buffer":0,
			"byteLength":24240,
			"byteOffset":205616,
			"target":34962
		},
		{
			"buffer":0,
			"byteLength":16160,
			"byteOffset":229856,
			"target":34962
		},
		{
			"buffer":0,
			"byteLength":1152,
			"byteOffset":246016,
			"target":34962
		},
		{
			"buffer":0,
			"byteLength":1152,
			"byteOffset":247168,
			"target":34962
		},
		{
			"buffer":0,
			"byteLength":768,
			"byteOffset":248320,
			"target":34962
		},
		{
			"buffer":0,
			"byteLength":29916,
			"byteOffset":249088,
			"target":34962
		},
		{
			"buffer":0,
			"byteLength":29916,
			"byteOffset":279004,
			"target":34962
		},
		{
			"buffer":0,
			"byteLength":19944,
			"byteOffset":308920,
			"target":34962
		},
		{
			"buffer":0,
			"byteLength":24240,
			"byteOffset":328864,
			"target":34962
		},
		{
			"buffer":0,
			"byteLength":24240,
			"byteOffset":353104,
			"target":34962
		},
		{
			"buffer":0,
			"byteLength":16160,
			"byteOffset":377344,
			"target":34962
		},
		{
			"buffer":0,
			"byteLength":5760,
			"byteOffset":393504,
			"target":34963
		}
	],
	"samplers":[
		{
			"magFilter":9729,
			"minFilter":9987
		}
	],
	"buffers":[
		{
			"byteLength":399264,
			"uri":"FlyEnemy.bin"
		}
	]
}
