{
	"asset":{
		"generator":"Khronos glTF Blender I/O v4.4.56",
		"version":"2.0"
	},
	"extensionsUsed":[
		"KHR_materials_clearcoat"
	],
	"scene":0,
	"scenes":[
		{
			"name":"Scene",
			"nodes":[
				0,
				7
			]
		}
	],
	"nodes":[
		{
			"name":"\u30a8\u30f3\u30d7\u30c6\u30a3",
			"rotation":[
				0.70710688829422,
				0,
				0,
				0.7071066498756409
			],
			"translation":[
				1.8108463287353516,
				1.8284183740615845,
				0
			]
		},
		{
			"mesh":0,
			"name":"leftEye",
			"rotation":[
				0,
				0,
				0.1961161196231842,
				0.9805806875228882
			],
			"translation":[
				0.3999999761581421,
				0.5,
				0.800000011920929
			]
		},
		{
			"mesh":1,
			"name":"\u5de6\u819c"
		},
		{
			"children":[
				2
			],
			"mesh":2,
			"name":"leftWing"
		},
		{
			"mesh":3,
			"name":"rightEye",
			"rotation":[
				0,
				0,
				-0.1961161196231842,
				0.9805806875228882
			],
			"translation":[
				-0.3999999761581421,
				0.5,
				0.800000011920929
			]
		},
		{
			"mesh":4,
			"name":"\u53f3\u819c"
		},
		{
			"children":[
				5
			],
			"mesh":5,
			"name":"rightWing"
		},
		{
			"children":[
				1,
				3,
				4,
				6
			],
			"mesh":6,
			"name":"body"
		}
	],
	"materials":[
		{
			"doubleSided":true,
			"extensions":{
				"KHR_materials_clearcoat":{
					"clearcoatRoughnessFactor":0
				}
			},
			"name":"\u30de\u30c6\u30ea\u30a2\u30eb.002",
			"pbrMetallicRoughness":{
				"baseColorTexture":{
					"index":0
				},
				"metallicFactor":0,
				"roughnessFactor":0.5
			}
		},
		{
			"doubleSided":true,
			"name":"\u30de\u30c6\u30ea\u30a2\u30eb.005",
			"pbrMetallicRoughness":{
				"baseColorTexture":{
					"index":1
				},
				"metallicFactor":0,
				"roughnessFactor":0.5
			}
		},
		{
			"doubleSided":true,
			"name":"\u30de\u30c6\u30ea\u30a2\u30eb.003",
			"pbrMetallicRoughness":{
				"baseColorTexture":{
					"index":2
				},
				"metallicFactor":0,
				"roughnessFactor":0.5
			}
		},
		{
			"doubleSided":true,
			"extensions":{
				"KHR_materials_clearcoat":{
					"clearcoatRoughnessFactor":0
				}
			},
			"name":"\u30de\u30c6\u30ea\u30a2\u30eb.001",
			"pbrMetallicRoughness":{
				"baseColorTexture":{
					"index":3
				},
				"metallicFactor":0,
				"roughnessFactor":0.5
			}
		},
		{
			"doubleSided":true,
			"name":"\u30de\u30c6\u30ea\u30a2\u30eb.006",
			"pbrMetallicRoughness":{
				"baseColorTexture":{
					"index":4
				},
				"metallicFactor":0,
				"roughnessFactor":0.5
			}
		},
		{
			"doubleSided":true,
			"name":"\u30de\u30c6\u30ea\u30a2\u30eb.004",
			"pbrMetallicRoughness":{
				"baseColorTexture":{
					"index":5
				},
				"metallicFactor":0,
				"roughnessFactor":0.5
			}
		},
		{
			"doubleSided":true,
			"extensions":{
				"KHR_materials_clearcoat":{
					"clearcoatRoughnessFactor":0
				}
			},
			"name":"\u30de\u30c6\u30ea\u30a2\u30eb",
			"pbrMetallicRoughness":{
				"baseColorTexture":{
					"index":6
				},
				"metallicFactor":0,
				"roughnessFactor":0.5
			}
		}
	],
	"meshes":[
		{
			"name":"\u7403.003",
			"primitives":[
				{
					"attributes":{
						"POSITION":0,
						"NORMAL":1,
						"TEXCOORD_0":2
					},
					"indices":3,
					"material":0
				}
			]
		},
		{
			"name":"\u5e73\u9762",
			"primitives":[
				{
					"attributes":{
						"POSITION":4,
						"NORMAL":5,
						"TEXCOORD_0":6
					},
					"indices":7,
					"material":1
				}
			]
		},
		{
			"name":"NURBS\u30d1\u30b9",
			"primitives":[
				{
					"attributes":{
						"POSITION":8,
						"NORMAL":9,
						"TEXCOORD_0":10
					},
					"indices":11,
					"material":2
				}
			]
		},
		{
			"name":"\u7403.004",
			"primitives":[
				{
					"attributes":{
						"POSITION":12,
						"NORMAL":13,
						"TEXCOORD_0":14
					},
					"indices":3,
					"material":3
				}
			]
		},
		{
			"name":"\u5e73\u9762.003",
			"primitives":[
				{
					"attributes":{
						"POSITION":15,
						"NORMAL":16,
						"TEXCOORD_0":17
					},
					"indices":18,
					"material":4
				}
			]
		},
		{
			"name":"NURBS\u30d1\u30b9.001",
			"primitives":[
				{
					"attributes":{
						"POSITION":19,
						"NORMAL":20,
						"TEXCOORD_0":21
					},
					"indices":22,
					"material":5
				}
			]
		},
		{
			"name":"\u7403.001",
			"primitives":[
				{
					"attributes":{
						"POSITION":23,
						"NORMAL":24,
						"TEXCOORD_0":25
					},
					"indices":26,
					"material":6
				}
			]
		}
	],
	"textures":[
		{
			"sampler":0,
			"source":0
		},
		{
			"sampler":0,
			"source":1
		},
		{
			"sampler":0,
			"source":2
		},
		{
			"sampler":0,
			"source":0
		},
		{
			"sampler":0,
			"source":1
		},
		{
			"sampler":0,
			"source":2
		},
		{
			"sampler":0,
			"source":2
		}
	],
	"images":[
		{
			"mimeType":"image/png",
			"name":"red",
			"uri":"red.png"
		},
		{
			"mimeType":"image/png",
			"name":"pink",
			"uri":"pink.png"
		},
		{
			"mimeType":"image/png",
			"name":"purple",
			"uri":"purple.png"
		}
	],
	"accessors":[
		{
			"bufferView":0,
			"componentType":5126,
			"count":2026,
			"max":[
				0.2999999225139618,
				0.20000000298023224,
				0.1999998688697815
			],
			"min":[
				-0.2999997138977051,
				-0.20000000298023224,
				-0.20000000298023224
			],
			"type":"VEC3"
		},
		{
			"bufferView":1,
			"componentType":5126,
			"count":2026,
			"type":"VEC3"
		},
		{
			"bufferView":2,
			"componentType":5126,
			"count":2026,
			"type":"VEC2"
		},
		{
			"bufferView":3,
			"componentType":5123,
			"count":2880,
			"type":"SCALAR"
		},
		{
			"bufferView":4,
			"componentType":5126,
			"count":400,
			"max":[
				2.627993583679199,
				1.3586786985397339,
				0.014999999664723873
			],
			"min":[
				0.8712210655212402,
				0.3986430764198303,
				-0.014999999664723873
			],
			"type":"VEC3"
		},
		{
			"bufferView":5,
			"componentType":5126,
			"count":400,
			"type":"VEC3"
		},
		{
			"bufferView":6,
			"componentType":5126,
			"count":400,
			"type":"VEC2"
		},
		{
			"bufferView":7,
			"componentType":5123,
			"count":1116,
			"type":"SCALAR"
		},
		{
			"bufferView":8,
			"componentType":5126,
			"count":9972,
			"max":[
				2.658877372741699,
				1.3890315294265747,
				0.03073156252503395
			],
			"min":[
				0.8466293215751648,
				0.445089191198349,
				-0.030731607228517532
			],
			"type":"VEC3"
		},
		{
			"bufferView":9,
			"componentType":5126,
			"count":9972,
			"type":"VEC3"
		},
		{
			"bufferView":10,
			"componentType":5126,
			"count":9972,
			"type":"VEC2"
		},
		{
			"bufferView":11,
			"componentType":5123,
			"count":55272,
			"type":"SCALAR"
		},
		{
			"bufferView":12,
			"componentType":5126,
			"count":2026,
			"max":[
				0.2999999225139618,
				0.20000000298023224,
				0.1999998688697815
			],
			"min":[
				-0.2999997138977051,
				-0.20000000298023224,
				-0.20000000298023224
			],
			"type":"VEC3"
		},
		{
			"bufferView":13,
			"componentType":5126,
			"count":2026,
			"type":"VEC3"
		},
		{
			"bufferView":14,
			"componentType":5126,
			"count":2026,
			"type":"VEC2"
		},
		{
			"bufferView":15,
			"componentType":5126,
			"count":400,
			"max":[
				-0.8712210655212402,
				1.3586786985397339,
				0.015000089071691036
			],
			"min":[
				-2.627993583679199,
				0.3986430764198303,
				-0.01500038243830204
			],
			"type":"VEC3"
		},
		{
			"bufferView":16,
			"componentType":5126,
			"count":400,
			"type":"VEC3"
		},
		{
			"bufferView":17,
			"componentType":5126,
			"count":400,
			"type":"VEC2"
		},
		{
			"bufferView":18,
			"componentType":5123,
			"count":1116,
			"type":"SCALAR"
		},
		{
			"bufferView":19,
			"componentType":5126,
			"count":9972,
			"max":[
				-0.8466293215751648,
				1.3890315294265747,
				0.03073153644800186
			],
			"min":[
				-2.658877372741699,
				0.445089191198349,
				-0.03073149546980858
			],
			"type":"VEC3"
		},
		{
			"bufferView":20,
			"componentType":5126,
			"count":9972,
			"type":"VEC3"
		},
		{
			"bufferView":21,
			"componentType":5126,
			"count":9972,
			"type":"VEC2"
		},
		{
			"bufferView":22,
			"componentType":5123,
			"count":55272,
			"type":"SCALAR"
		},
		{
			"bufferView":23,
			"componentType":5126,
			"count":2020,
			"max":[
				0.9999997019767761,
				1,
				0.9999993443489075
			],
			"min":[
				-0.9999990463256836,
				-1,
				-1
			],
			"type":"VEC3"
		},
		{
			"bufferView":24,
			"componentType":5126,
			"count":2020,
			"type":"VEC3"
		},
		{
			"bufferView":25,
			"componentType":5126,
			"count":2020,
			"type":"VEC2"
		},
		{
			"bufferView":26,
			"componentType":5123,
			"count":2880,
			"type":"SCALAR"
		}
	],
	"bufferViews":[
		{
			"buffer":0,
			"byteLength":24312,
			"byteOffset":0,
			"target":34962
		},
		{
			"buffer":0,
			"byteLength":24312,
			"byteOffset":24312,
			"target":34962
		},
		{
			"buffer":0,
			"byteLength":16208,
			"byteOffset":48624,
			"target":34962
		},
		{
			"buffer":0,
			"byteLength":5760,
			"byteOffset":64832,
			"target":34963
		},
		{
			"buffer":0,
			"byteLength":4800,
			"byteOffset":70592,
			"target":34962
		},
		{
			"buffer":0,
			"byteLength":4800,
			"byteOffset":75392,
			"target":34962
		},
		{
			"buffer":0,
			"byteLength":3200,
			"byteOffset":80192,
			"target":34962
		},
		{
			"buffer":0,
			"byteLength":2232,
			"byteOffset":83392,
			"target":34963
		},
		{
			"buffer":0,
			"byteLength":119664,
			"byteOffset":85624,
			"target":34962
		},
		{
			"buffer":0,
			"byteLength":119664,
			"byteOffset":205288,
			"target":34962
		},
		{
			"buffer":0,
			"byteLength":79776,
			"byteOffset":324952,
			"target":34962
		},
		{
			"buffer":0,
			"byteLength":110544,
			"byteOffset":404728,
			"target":34963
		},
		{
			"buffer":0,
			"byteLength":24312,
			"byteOffset":515272,
			"target":34962
		},
		{
			"buffer":0,
			"byteLength":24312,
			"byteOffset":539584,
			"target":34962
		},
		{
			"buffer":0,
			"byteLength":16208,
			"byteOffset":563896,
			"target":34962
		},
		{
			"buffer":0,
			"byteLength":4800,
			"byteOffset":580104,
			"target":34962
		},
		{
			"buffer":0,
			"byteLength":4800,
			"byteOffset":584904,
			"target":34962
		},
		{
			"buffer":0,
			"byteLength":3200,
			"byteOffset":589704,
			"target":34962
		},
		{
			"buffer":0,
			"byteLength":2232,
			"byteOffset":592904,
			"target":34963
		},
		{
			"buffer":0,
			"byteLength":119664,
			"byteOffset":595136,
			"target":34962
		},
		{
			"buffer":0,
			"byteLength":119664,
			"byteOffset":714800,
			"target":34962
		},
		{
			"buffer":0,
			"byteLength":79776,
			"byteOffset":834464,
			"target":34962
		},
		{
			"buffer":0,
			"byteLength":110544,
			"byteOffset":914240,
			"target":34963
		},
		{
			"buffer":0,
			"byteLength":24240,
			"byteOffset":1024784,
			"target":34962
		},
		{
			"buffer":0,
			"byteLength":24240,
			"byteOffset":1049024,
			"target":34962
		},
		{
			"buffer":0,
			"byteLength":16160,
			"byteOffset":1073264,
			"target":34962
		},
		{
			"buffer":0,
			"byteLength":5760,
			"byteOffset":1089424,
			"target":34963
		}
	],
	"samplers":[
		{
			"magFilter":9729,
			"minFilter":9987
		}
	],
	"buffers":[
		{
			"byteLength":1095184,
			"uri":"FlyEnemy.bin"
		}
	]
}
