{
	"asset":{
		"generator":"Khronos glTF Blender I/O v4.4.56",
		"version":"2.0"
	},
	"extensionsUsed":[
		"KHR_materials_clearcoat"
	],
	"scene":0,
	"scenes":[
		{
			"name":"Scene",
			"nodes":[
				2
			]
		}
	],
	"nodes":[
		{
			"mesh":0,
			"name":"leftEye",
			"rotation":[
				0,
				0,
				0.1961161196231842,
				0.9805806875228882
			],
			"scale":[
				0.30000001192092896,
				0.20000000298023224,
				0.20000000298023224
			],
			"translation":[
				0.3999999761581421,
				0.5,
				0.800000011920929
			]
		},
		{
			"mesh":1,
			"name":"rightEye",
			"rotation":[
				0,
				0,
				-0.1961161196231842,
				0.9805806875228882
			],
			"scale":[
				0.30000001192092896,
				0.20000000298023224,
				0.20000000298023224
			],
			"translation":[
				-0.3999999761581421,
				0.5,
				0.800000011920929
			]
		},
		{
			"children":[
				0,
				1
			],
			"mesh":2,
			"name":"body"
		}
	],
	"animations":[
		{
			"channels":[
				{
					"sampler":0,
					"target":{
						"node":2,
						"path":"translation"
					}
				},
				{
					"sampler":1,
					"target":{
						"node":2,
						"path":"rotation"
					}
				},
				{
					"sampler":2,
					"target":{
						"node":2,
						"path":"scale"
					}
				}
			],
			"name":"body\u30a2\u30af\u30b7\u30e7\u30f3",
			"samplers":[
				{
					"input":11,
					"interpolation":"STEP",
					"output":12
				},
				{
					"input":13,
					"interpolation":"LINEAR",
					"output":14
				},
				{
					"input":11,
					"interpolation":"STEP",
					"output":15
				}
			]
		},
		{
			"channels":[
				{
					"sampler":0,
					"target":{
						"node":0,
						"path":"translation"
					}
				},
				{
					"sampler":1,
					"target":{
						"node":0,
						"path":"rotation"
					}
				},
				{
					"sampler":2,
					"target":{
						"node":0,
						"path":"scale"
					}
				}
			],
			"name":"leftEye\u30a2\u30af\u30b7\u30e7\u30f3",
			"samplers":[
				{
					"input":11,
					"interpolation":"STEP",
					"output":16
				},
				{
					"input":11,
					"interpolation":"STEP",
					"output":17
				},
				{
					"input":11,
					"interpolation":"STEP",
					"output":18
				}
			]
		},
		{
			"channels":[
				{
					"sampler":0,
					"target":{
						"node":1,
						"path":"translation"
					}
				},
				{
					"sampler":1,
					"target":{
						"node":1,
						"path":"rotation"
					}
				},
				{
					"sampler":2,
					"target":{
						"node":1,
						"path":"scale"
					}
				}
			],
			"name":"rightEye\u30a2\u30af\u30b7\u30e7\u30f3",
			"samplers":[
				{
					"input":11,
					"interpolation":"STEP",
					"output":19
				},
				{
					"input":11,
					"interpolation":"STEP",
					"output":20
				},
				{
					"input":11,
					"interpolation":"STEP",
					"output":21
				}
			]
		}
	],
	"materials":[
		{
			"doubleSided":true,
			"extensions":{
				"KHR_materials_clearcoat":{
					"clearcoatRoughnessFactor":0
				}
			},
			"name":"\u30de\u30c6\u30ea\u30a2\u30eb.002",
			"pbrMetallicRoughness":{
				"baseColorTexture":{
					"index":0
				},
				"metallicFactor":0,
				"roughnessFactor":0.5
			}
		},
		{
			"doubleSided":true,
			"extensions":{
				"KHR_materials_clearcoat":{
					"clearcoatRoughnessFactor":0
				}
			},
			"name":"\u30de\u30c6\u30ea\u30a2\u30eb.001",
			"pbrMetallicRoughness":{
				"baseColorTexture":{
					"index":1
				},
				"metallicFactor":0,
				"roughnessFactor":0.5
			}
		},
		{
			"doubleSided":true,
			"extensions":{
				"KHR_materials_clearcoat":{
					"clearcoatRoughnessFactor":0
				}
			},
			"name":"\u30de\u30c6\u30ea\u30a2\u30eb",
			"pbrMetallicRoughness":{
				"baseColorTexture":{
					"index":2
				},
				"metallicFactor":0,
				"roughnessFactor":0.5
			}
		}
	],
	"meshes":[
		{
			"name":"\u7403.003",
			"primitives":[
				{
					"attributes":{
						"POSITION":0,
						"NORMAL":1,
						"TEXCOORD_0":2
					},
					"indices":3,
					"material":0
				}
			]
		},
		{
			"name":"\u7403.004",
			"primitives":[
				{
					"attributes":{
						"POSITION":4,
						"NORMAL":5,
						"TEXCOORD_0":6
					},
					"indices":3,
					"material":1
				}
			]
		},
		{
			"name":"\u7403.001",
			"primitives":[
				{
					"attributes":{
						"POSITION":7,
						"NORMAL":8,
						"TEXCOORD_0":9
					},
					"indices":10,
					"material":2
				}
			]
		}
	],
	"textures":[
		{
			"sampler":0,
			"source":0
		},
		{
			"sampler":0,
			"source":0
		},
		{
			"sampler":0,
			"source":1
		}
	],
	"images":[
		{
			"mimeType":"image/png",
			"name":"red",
			"uri":"red.png"
		},
		{
			"mimeType":"image/png",
			"name":"purple",
			"uri":"purple.png"
		}
	],
	"accessors":[
		{
			"bufferView":0,
			"componentType":5126,
			"count":2020,
			"max":[
				0.9999997019767761,
				1,
				0.9999993443489075
			],
			"min":[
				-0.9999990463256836,
				-1,
				-1
			],
			"type":"VEC3"
		},
		{
			"bufferView":1,
			"componentType":5126,
			"count":2020,
			"type":"VEC3"
		},
		{
			"bufferView":2,
			"componentType":5126,
			"count":2020,
			"type":"VEC2"
		},
		{
			"bufferView":3,
			"componentType":5123,
			"count":2880,
			"type":"SCALAR"
		},
		{
			"bufferView":4,
			"componentType":5126,
			"count":2020,
			"max":[
				0.9999997019767761,
				1,
				0.9999993443489075
			],
			"min":[
				-0.9999990463256836,
				-1,
				-1
			],
			"type":"VEC3"
		},
		{
			"bufferView":5,
			"componentType":5126,
			"count":2020,
			"type":"VEC3"
		},
		{
			"bufferView":6,
			"componentType":5126,
			"count":2020,
			"type":"VEC2"
		},
		{
			"bufferView":7,
			"componentType":5126,
			"count":2020,
			"max":[
				0.9999997019767761,
				1,
				0.9999993443489075
			],
			"min":[
				-0.9999990463256836,
				-1,
				-1
			],
			"type":"VEC3"
		},
		{
			"bufferView":8,
			"componentType":5126,
			"count":2020,
			"type":"VEC3"
		},
		{
			"bufferView":9,
			"componentType":5126,
			"count":2020,
			"type":"VEC2"
		},
		{
			"bufferView":10,
			"componentType":5123,
			"count":2880,
			"type":"SCALAR"
		},
		{
			"bufferView":11,
			"componentType":5126,
			"count":2,
			"max":[
				1.6666666666666667
			],
			"min":[
				0
			],
			"type":"SCALAR"
		},
		{
			"bufferView":12,
			"componentType":5126,
			"count":2,
			"type":"VEC3"
		},
		{
			"bufferView":13,
			"componentType":5126,
			"count":41,
			"max":[
				1.6666666666666667
			],
			"min":[
				0
			],
			"type":"SCALAR"
		},
		{
			"bufferView":14,
			"componentType":5126,
			"count":41,
			"type":"VEC4"
		},
		{
			"bufferView":15,
			"componentType":5126,
			"count":2,
			"type":"VEC3"
		},
		{
			"bufferView":16,
			"componentType":5126,
			"count":2,
			"type":"VEC3"
		},
		{
			"bufferView":17,
			"componentType":5126,
			"count":2,
			"type":"VEC4"
		},
		{
			"bufferView":18,
			"componentType":5126,
			"count":2,
			"type":"VEC3"
		},
		{
			"bufferView":19,
			"componentType":5126,
			"count":2,
			"type":"VEC3"
		},
		{
			"bufferView":20,
			"componentType":5126,
			"count":2,
			"type":"VEC4"
		},
		{
			"bufferView":21,
			"componentType":5126,
			"count":2,
			"type":"VEC3"
		}
	],
	"bufferViews":[
		{
			"buffer":0,
			"byteLength":24240,
			"byteOffset":0,
			"target":34962
		},
		{
			"buffer":0,
			"byteLength":24240,
			"byteOffset":24240,
			"target":34962
		},
		{
			"buffer":0,
			"byteLength":16160,
			"byteOffset":48480,
			"target":34962
		},
		{
			"buffer":0,
			"byteLength":5760,
			"byteOffset":64640,
			"target":34963
		},
		{
			"buffer":0,
			"byteLength":24240,
			"byteOffset":70400,
			"target":34962
		},
		{
			"buffer":0,
			"byteLength":24240,
			"byteOffset":94640,
			"target":34962
		},
		{
			"buffer":0,
			"byteLength":16160,
			"byteOffset":118880,
			"target":34962
		},
		{
			"buffer":0,
			"byteLength":24240,
			"byteOffset":135040,
			"target":34962
		},
		{
			"buffer":0,
			"byteLength":24240,
			"byteOffset":159280,
			"target":34962
		},
		{
			"buffer":0,
			"byteLength":16160,
			"byteOffset":183520,
			"target":34962
		},
		{
			"buffer":0,
			"byteLength":5760,
			"byteOffset":199680,
			"target":34963
		},
		{
			"buffer":0,
			"byteLength":8,
			"byteOffset":205440
		},
		{
			"buffer":0,
			"byteLength":24,
			"byteOffset":205448
		},
		{
			"buffer":0,
			"byteLength":164,
			"byteOffset":205472
		},
		{
			"buffer":0,
			"byteLength":656,
			"byteOffset":205636
		},
		{
			"buffer":0,
			"byteLength":24,
			"byteOffset":206292
		},
		{
			"buffer":0,
			"byteLength":24,
			"byteOffset":206316
		},
		{
			"buffer":0,
			"byteLength":32,
			"byteOffset":206340
		},
		{
			"buffer":0,
			"byteLength":24,
			"byteOffset":206372
		},
		{
			"buffer":0,
			"byteLength":24,
			"byteOffset":206396
		},
		{
			"buffer":0,
			"byteLength":32,
			"byteOffset":206420
		},
		{
			"buffer":0,
			"byteLength":24,
			"byteOffset":206452
		}
	],
	"samplers":[
		{
			"magFilter":9729,
			"minFilter":9987
		}
	],
	"buffers":[
		{
			"byteLength":206476,
			"uri":"normalEnemy.bin"
		}
	]
}
